<?xml version="1.0" encoding="utf-8"?>
<!-- Svg Vector Icons : http://www.onlinewebfonts.com/icon -->
<!DOCTYPE svg PUBLIC "-//W3C//DTD SVG 1.1//EN" "http://www.w3.org/Graphics/SVG/1.1/DTD/svg11.dtd">
<svg version="1.1" xmlns="http://www.w3.org/2000/svg" xmlns:xlink="http://www.w3.org/1999/xlink" x="0px" y="0px" viewBox="0 0 256 256" enable-background="new 0 0 256 256" xml:space="preserve">
<metadata> Svg Vector Icons : http://www.onlinewebfonts.com/icon </metadata>
<g><g><g><path fill="#000000" d="M114.6,10.7C73.5,17,42.2,48.4,36,89.4c-1,6.6-1,19.8,0,26.8c1.6,10.9,4.4,19.8,9.9,30.8c6.9,13.9,15.4,25.4,35.9,48.7C97.5,213.3,127.4,246,128,246c1,0,57.6-67.6,66.4-79.3c13.5-17.9,22.6-36.8,25.2-52.1c2.2-12.9,0.8-28-3.8-41.8c-11.1-33-40-57-74.8-62.1C134.9,9.8,120.5,9.8,114.6,10.7z M79.4,61.5c0.5,0.7,0.6,4.2,0.6,16.7c0,15.7,0,15.9,1,17.3l1,1.4h47.2h47.2v-8.5c0-10.3,0-10.3,5.1-10.3c2.4,0,3.5,0.2,4,0.8c0.7,0.7,0.8,3.7,0.8,26.7c0,19.6-0.1,26.1-0.6,26.5c-0.3,0.3-2.1,0.6-4.4,0.6c-5.5,0-5.4,0.1-5.4-8.3v-6.8h-48H80v6.8c0,8.4,0.1,8.3-5.4,8.3c-2.4,0-4.1-0.2-4.4-0.6c-0.4-0.4-0.6-8.9-0.6-35.4c0-19.1,0.2-35,0.4-35.3c0.6-0.9,1.7-1.1,5.2-0.9C78,60.5,78.9,60.8,79.4,61.5z M102.8,68.7c2.2,1,5.2,4.1,6.2,6.5c0.4,0.9,0.7,3,0.7,4.6c0,6.7-5.2,11.9-11.8,12c-3.5,0-5.9-0.8-8.3-2.9C84.1,84,84,76,89.3,70.9C92.9,67.5,98.1,66.6,102.8,68.7z M152,76.3c13.4,0.9,15.9,2.7,16.4,10.9l0.2,4.1h-29h-29v-2.5c0-2.9,0.9-5.9,2.5-8c1.4-1.7,5.2-3.9,7.9-4.4C123.9,75.7,144.4,75.7,152,76.3z"/></g></g></g>
</svg>